<svg width="318" height="106" viewBox="0 0 318 106" fill="none" xmlns="http://www.w3.org/2000/svg">
    <path d="M289.898 49.2734H281.291V35.2449H287.175C291.567 35.2449 298.241 36.0349 298.241 41.9086C298.241 47.3452 294.728 49.2734 289.898 49.2734ZM291.04 20.5175H260.567V83.6413H281.291V64.0032H291.743C309.92 64.0032 318 55.4112 318 41.8221C318 28.8453 309.217 20.5175 291.04 20.5175Z" fill="#3A3186"/>
    <path d="M196.354 20.5183H245.531V35.2457H217.078V46.7312H239.734V61.461H217.078V83.6421H196.354V20.5183Z" fill="#3A3186"/>
    <path d="M145.688 68.9123H141.296V35.2457H145.247C156.312 35.2457 160.615 38.7516 160.615 51.9037C160.615 63.8263 155.347 68.9123 145.688 68.9123ZM148.322 20.5183H120.572V83.6397H147.794C168.081 83.6397 181.34 74.5242 181.34 50.7631C181.34 29.9844 168.695 20.5183 148.322 20.5183Z" fill="#3A3186"/>
    <path d="M54.1828 19.7408L80.9557 46.4445C84.0677 49.5485 84.0677 54.583 80.9557 57.687L47.1293 91.4261C44.0174 94.53 38.9698 94.53 35.8578 91.4261L13.3123 68.9388L11.9016 70.3459C9.56763 72.6738 5.78311 72.6738 3.44678 70.3459L20.3565 53.4798L41.4443 74.5133L63.9992 52.0167L42.9113 30.9832L54.1828 19.7408Z" fill="#3A3186"/>
    <path d="M52.4637 18.0379L7.3728 63.0125L2.26193 57.9148C-0.753976 54.909 -0.753976 50.0357 2.26193 47.0276L36.4375 12.9403C39.451 9.93447 44.3393 9.93447 47.3529 12.9403L52.4637 18.0379Z" fill="#3A3186"/>
    <rect x="98.6436" width="2.17999" height="106" fill="#F59C00"/>
</svg>
