<svg width="39" height="30" viewBox="0 0 39 30" fill="none" xmlns="http://www.w3.org/2000/svg">
    <path d="M32.625 0H6.375C4.88316 0 3.45242 0.592632 2.39752 1.64752C1.34263 2.70242 0.75 4.13316 0.75 5.625V24.375C0.75 25.8668 1.34263 27.2976 2.39752 28.3525C3.45242 29.4074 4.88316 30 6.375 30H32.625C34.1168 30 35.5476 29.4074 36.6025 28.3525C37.6574 27.2976 38.25 25.8668 38.25 24.375V5.625C38.25 4.13316 37.6574 2.70242 36.6025 1.64752C35.5476 0.592632 34.1168 0 32.625 0ZM31.3687 3.75L19.5 12.6562L7.63125 3.75H31.3687ZM32.625 26.25H6.375C5.87772 26.25 5.40081 26.0525 5.04918 25.7008C4.69754 25.3492 4.5 24.8723 4.5 24.375V6.09375L18.375 16.5C18.6996 16.7434 19.0943 16.875 19.5 16.875C19.9057 16.875 20.3004 16.7434 20.625 16.5L34.5 6.09375V24.375C34.5 24.8723 34.3025 25.3492 33.9508 25.7008C33.5992 26.0525 33.1223 26.25 32.625 26.25Z" fill="#F59C00"/>
</svg>
