<svg width="39" height="39" viewBox="0 0 39 39" fill="none" xmlns="http://www.w3.org/2000/svg">
    <path d="M36.4078 6.17585L31.3491 0.989501C30.7316 0.355831 29.9051 0 29.0311 0C28.1571 0 27.3305 0.350956 26.713 0.989501L21.2648 6.57068C20.6473 7.20435 20.3005 8.05737 20.3005 8.95426C20.3005 9.85602 20.6425 10.6993 21.2648 11.3378L25.5208 15.7102C24.5512 18.0284 23.1582 20.1346 21.4168 21.9153C19.6735 23.7139 17.6358 25.1324 15.3747 26.1365L11.1187 21.7642C10.5012 21.1305 9.67472 20.7747 8.80072 20.7747C8.36962 20.773 7.94254 20.8597 7.54451 21.0296C7.14647 21.1995 6.78549 21.4492 6.48271 21.7642L1.02968 27.3453C0.412181 27.979 0.0654297 28.832 0.0654297 29.7289C0.0654297 30.6307 0.407431 31.4739 1.02968 32.1125L6.08371 37.2988C7.13821 38.381 8.59172 39 10.0832 39C10.392 39 10.6912 38.9756 10.9952 38.922C17.2843 37.8594 23.5258 34.4229 28.5656 29.2561C33.6006 24.0795 36.9446 17.6745 37.9896 11.216C38.2888 9.3832 37.6903 7.49681 36.4078 6.17585ZM34.6218 10.6359C33.6956 16.3828 30.6841 22.1151 26.1478 26.7702C21.6115 31.4252 16.0303 34.5156 10.43 35.4661C9.72697 35.5879 9.00497 35.3442 8.49197 34.8226L3.52819 29.7289L8.79122 24.3232L14.4817 30.1725L14.5245 30.2163L15.5505 29.8264C18.6614 28.6527 21.4864 26.7988 23.8297 24.3933C26.1731 21.9878 27.9786 19.0882 29.1213 15.8954L29.5013 14.8425L23.7633 8.95913L29.0263 3.55343L33.9901 8.64717C34.5031 9.1736 34.7406 9.91451 34.6218 10.6359Z" fill="#F59C00"/>
</svg>
